<svg xmlns="http://www.w3.org/2000/svg" xmlns:xlink="http://www.w3.org/1999/xlink" version="1.1" x="0px" y="0px" viewBox="0 0 64 80" style="enable-background:new 0 0 64 64;" xml:space="preserve"><g><path d="M17.17,19.42c4.52-5.76,11.66-8.07,19.65-6.39l-0.45,3.51c-0.02,0.19,0.07,0.37,0.23,0.47c0.16,0.11,0.36,0.11,0.53,0   l10.55-6.64c0.12-0.07,0.21-0.21,0.23-0.34c0.01-0.15-0.03-0.3-0.13-0.4l-8.75-9.47c-0.14-0.14-0.33-0.19-0.52-0.13   c-0.18,0.06-0.32,0.23-0.33,0.41l-0.32,3.08C26.79,1.06,16.19,4.72,9.4,13.37c-7.3,9.29-8.45,22.2-2.94,32.93   c0.07,0.12,0.17,0.21,0.3,0.25c0.05,0.02,0.1,0.02,0.15,0.02c0.08,0,0.17-0.02,0.24-0.06l8.04-4.47c0.24-0.13,0.32-0.41,0.21-0.65   C11.72,34.09,12.42,25.48,17.17,19.42z"/><path d="M57.44,17.48c-0.06-0.12-0.17-0.21-0.3-0.25c-0.13-0.04-0.27-0.02-0.38,0.05l-8.02,4.52c-0.23,0.13-0.32,0.42-0.2,0.66   c3.71,7.26,3.07,15.88-1.63,21.97c-4.47,5.79-11.6,8.15-19.61,6.52l0.42-3.51c0.02-0.19-0.07-0.37-0.23-0.47   c-0.16-0.1-0.36-0.1-0.52,0l-10.51,6.72c-0.12,0.08-0.21,0.21-0.22,0.35c-0.02,0.14,0.02,0.29,0.13,0.39l8.81,9.41   c0.1,0.1,0.23,0.15,0.36,0.15c0.05,0,0.11-0.01,0.16-0.02c0.18-0.07,0.32-0.23,0.32-0.42l0.31-3.08   C37.42,62.86,48,59.13,54.73,50.43C61.96,41.1,63.03,28.17,57.44,17.48z"/><path d="M41.6,22.3c-2.45-2.41-5.81-3.93-9.51-3.95H31.9c0,0,0,0-0.01,0c-3.68,0.03-7.02,1.53-9.46,3.93   c-0.04,0.03-0.08,0.06-0.11,0.1c-2.46,2.48-3.98,5.87-3.98,9.62v0.01c0,3.72,1.5,7.1,3.93,9.56c0,0,0.01,0.01,0.01,0.02   c0.04,0.04,0.09,0.09,0.14,0.13c0,0,0,0.01,0.01,0.01c2.46,2.43,5.85,3.93,9.57,3.93c3.71,0,7.08-1.49,9.54-3.91   c0.01,0,0.01,0,0.01-0.01c0.06-0.05,0.11-0.1,0.17-0.16c0,0,0.01,0,0.01-0.01c2.43-2.46,3.93-5.84,3.93-9.56V32   c0-3.72-1.49-7.08-3.92-9.55c-0.03-0.04-0.05-0.07-0.09-0.1C41.63,22.33,41.62,22.32,41.6,22.3z M39.38,39.32   c-0.01,0.01-0.02,0.02-0.03,0.03c-1.88,1.88-4.48,3.05-7.36,3.05h-0.01c-5.72-0.01-10.38-4.67-10.39-10.4V32   c0-5.73,4.67-10.4,10.4-10.4c5.71,0,10.36,4.62,10.41,10.31v0.16C42.39,34.9,41.23,37.46,39.38,39.32z M40.69,22.8   c-0.21,0.39-0.51,0.69-0.91,0.9c-1.89-1.76-4.38-2.9-7.13-3.05c0.09-0.43,0.09-0.86,0.01-1.29C35.77,19.51,38.58,20.79,40.69,22.8z    M22.8,23.3c0.39,0.22,0.7,0.52,0.9,0.92c-1.77,1.88-2.9,4.38-3.06,7.13c-0.43-0.09-0.87-0.09-1.29,0   C19.5,28.25,20.79,25.42,22.8,23.3z M23.3,41.2c0.21-0.39,0.52-0.7,0.92-0.9c1.88,1.77,4.38,2.9,7.13,3.06   c-0.09,0.42-0.09,0.86-0.01,1.28C28.24,44.49,25.42,43.21,23.3,41.2z M41.2,40.7c-0.39-0.21-0.7-0.51-0.91-0.92   c1.77-1.89,2.91-4.38,3.06-7.13c0.22,0.05,0.44,0.07,0.67,0.07c0.21,0,0.41-0.02,0.62-0.06C44.49,35.77,43.21,38.59,41.2,40.7z"/><path d="M32,26.55c1.37,0,2.48,1.11,2.48,2.48c0,0.27,0.22,0.49,0.49,0.49c0.27,0,0.49-0.22,0.49-0.49c0-1.74-1.3-3.17-2.97-3.41   V24.3c0-0.27-0.22-0.49-0.49-0.49c-0.27,0-0.49,0.22-0.49,0.49v1.32c-1.67,0.24-2.97,1.67-2.97,3.41c0,1.91,1.55,3.46,3.46,3.46   c1.37,0,2.48,1.11,2.48,2.48c0,1.37-1.11,2.48-2.48,2.48c-1.37,0-2.48-1.11-2.48-2.48c0-0.27-0.22-0.49-0.49-0.49   c-0.27,0-0.49,0.22-0.49,0.49c0,1.74,1.3,3.17,2.97,3.41v1.32c0,0.27,0.22,0.49,0.49,0.49c0.27,0,0.49-0.22,0.49-0.49v-1.32   c1.67-0.24,2.97-1.67,2.97-3.41c0-1.91-1.55-3.46-3.46-3.46c-1.37,0-2.48-1.11-2.48-2.48C29.52,27.67,30.63,26.55,32,26.55z"/></g><text x="0" y="79" fill="#000000" font-size="5px" font-weight="bold" font-family="'Helvetica Neue', Helvetica, Arial-Unicode, Arial, Sans-serif">Created by Rank Sol</text><text x="0" y="84" fill="#000000" font-size="5px" font-weight="bold" font-family="'Helvetica Neue', Helvetica, Arial-Unicode, Arial, Sans-serif">from the Noun Project</text></svg>